<svg xmlns="http://www.w3.org/2000/svg" width="219" height="35" viewBox="0 0 219 35">
    <g id="hopcharge-logo" fill="none" fill-rule="evenodd" stroke="none" stroke-width="1">
        <g id="Group-14" fill="#222E53">
            <g id="logo" transform="translate(0 3)">
                <g id="Group-2">
                    <polygon id="Fill-1" points="8.591 2.611 20.684 2.611 20.684 0 8.591 0"/>
                    <path id="Fill-2"
                          d="M15.8623409,3.759789 L2.68949628,3.759789 C1.65850163,3.759789 0.822728549,4.59605914 0.822728549,5.62747069 L0.822728549,8.9821282 L13.0927943,8.9821282 L15.8623409,3.759789"/>
                    <path id="Fill-3"
                          d="M28.421331,8.9821282 L28.421331,5.62747069 C28.421331,4.59605914 27.5852945,3.759789 26.5542999,3.759789 L22.6252794,3.759789 C22.3275731,4.20498556 21.9051639,4.83390147 21.627656,5.25019144 C20.8004013,6.49396534 19.9731467,7.73817856 19.1450138,8.9821282 L28.421331,8.9821282"/>
                    <path id="Fill-4"
                          d="M6.72565588,29.9588198 C6.69729036,29.9394901 6.70431587,29.9438832 6.67603817,29.9245536 C7.0341639,29.1865131 7.42601212,28.4651664 7.79933054,27.7342428 C8.05953813,27.224907 8.32317066,26.7173285 8.58618846,26.2094863 L0.822728549,26.2094863 L0.822728549,29.5643196 C0.822728549,30.595819 1.65850163,31.4313862 2.68949628,31.4313862 L26.5542999,31.4313862 C27.5852945,31.4313862 28.421331,30.595819 28.421331,29.5643196 L28.421331,26.2094863 L10.1604312,26.2094863 L6.72565588,29.9588198"/>
                    <path id="Fill-5"
                          d="M1.68440823,15.5301286 C1.14212612,15.9589829 1.00565545,16.4873847 0.974391901,17.042848 L8.48537229,17.042848 L8.48537229,18.0049365 L12.81836,18.0049365 C13.0508168,17.5534139 13.2851178,17.0977617 13.5259174,16.6298968 C12.0214907,16.6298968 10.5469225,16.6298968 9.03687539,16.6298968 L10.0089435,14.7963934 C7.93237627,14.7963934 6.14991475,14.7963934 5.22026319,14.7963934 C5.98639584,13.6362641 6.72925646,12.5199779 7.70615462,11.5199331 C7.82005582,11.4032524 8.06752966,11.3153904 8.25695516,11.310558 C9.44646304,11.2805971 10.6957756,11.2556443 11.8857226,11.2581044 L12.4835941,10.1307476 L9.1647398,10.1307476 C8.91752941,10.1412032 8.67031903,10.1506044 8.42302083,10.1568426 C7.58171515,10.1783688 7.01343863,10.5526607 6.49574583,10.9976816 C5.60517371,11.7634864 4.74323058,12.5508174 3.88040925,13.3370063 C3.74016237,13.4647575 3.62055294,13.5018353 3.39977606,13.4985844 C2.57814183,13.4862837 1.75308266,13.4871623 0.934522091,13.5381223 C0.566121535,13.5611421 0.147400712,13.6643799 0.0297233001,14.017585 C-0.086022095,14.3652548 0.153021126,14.6530906 0.4571382,14.8552609 C0.827031678,15.1011866 1.26199901,15.2838516 1.69389268,15.5067574 C1.70320149,15.4774115 1.7055726,15.5134349 1.68440823,15.5301286"/>
                    <path id="Fill-6"
                          d="M29.3258664,14.017585 C29.208189,13.6643799 28.7892925,13.5611421 28.4204529,13.5381223 C27.6019801,13.4871623 26.77736,13.4862837 25.9553745,13.4985844 C25.7349489,13.5018353 25.6155151,13.4647575 25.4750048,13.3370063 C24.6117444,12.5508174 23.7502403,11.7634864 22.859756,10.9976816 C22.3416241,10.5526607 21.7734354,10.1783688 20.9321298,10.1568426 C20.6853585,10.1506044 20.437709,10.1412032 20.1909377,10.1307476 L18.3809888,10.1307476 C18.1307048,10.5058303 17.8812989,10.8808252 17.6318931,11.25582 C18.7875906,11.2551171 19.9432882,11.2814757 21.0981076,11.310558 C21.2877966,11.3153904 21.535446,11.4032524 21.6496107,11.5199331 C22.6261576,12.5199779 23.369106,13.6362641 24.1348874,14.7963934 C23.3954517,14.7963934 22.1431533,14.7963934 20.6168597,14.7963934 C19.6368,15.8659371 18.6567404,16.9353928 17.6775589,18.0049365 L20.8759256,18.0049365 L20.8759256,17.042848 L28.3809343,17.042848 C28.3493195,16.4873847 28.2132001,15.9589829 27.6704789,15.5301286 C27.6494023,15.5134349 27.6520369,15.4774115 27.661697,15.5067574 C28.0928881,15.2838516 28.5284702,15.1011866 28.898188,14.8552609 C29.2020416,14.6530906 29.4409092,14.3652548 29.3258664,14.017585"/>
                    <path id="Fill-7"
                          d="M23.086329,22.7240902 C23.4613159,22.719785 23.6378321,22.7913046 23.7195037,23.0962735 L24.4466447,25.0415373 C26.3347524,25.0415373 26.5077558,25.0415373 28.3958635,25.0415373 L28.3914726,19.2340374 L16.5508416,19.2340374 C15.4794503,20.403568 14.4081467,21.5731864 13.3365797,22.742717 C17.3886345,22.7445621 21.8340305,22.738236 23.086329,22.7240902"/>
                    <path id="Fill-8"
                          d="M0.95919922,25.0415373 C2.84783387,25.0415373 3.02039813,25.0415373 4.90903278,25.0415373 L5.20682689,24.2444536 L5.20682689,24.2443657 L5.63564689,23.0962735 C5.71766981,22.7913046 5.89436156,22.719785 6.26873381,22.7240902 C6.92790296,22.7315585 8.47149689,22.7368302 10.3763781,22.7399054 C10.6601211,22.1875172 10.9434251,21.6349534 11.2280464,21.0830045 C11.5460388,20.4663014 11.8656999,19.8503012 12.1843949,19.2340374 L0.964029263,19.2340374 L0.95919922,25.0415373"/>
                </g>
                <path id="Fill-9"
                      d="M81.0773437,21.4418445 L88.1459212,21.4418445 L88.1459212,13.9390432 L81.0773437,13.9390432 L81.0773437,21.4418445 Z M76.8358774,10.3732549 L92.3870968,10.3732549 L92.3870968,25.0076328 L81.0773437,25.0076328 L81.0773437,29.246266 C81.0773437,30.7674176 79.8410549,32 78.3162261,32 L76.8358774,32 L76.8358774,10.3732549 Z M62.2722356,21.4418445 L69.3409584,21.4418445 L69.3409584,13.9390432 L62.2722356,13.9390432 L62.2722356,21.4418445 Z M58.0309146,25.0076328 L73.582134,25.0076328 L73.582134,10.3732549 L58.0309146,10.3732549 L58.0309146,25.0076328 Z M43.4671274,6.36663723 L43.4671274,10.3732549 L54.7770258,10.3732549 L54.7770258,25.0076328 L50.5359956,25.0076328 L50.5359956,13.9390432 L43.4671274,13.9390432 L43.4671274,25.0076328 L39.2258065,25.0076328 L39.2258065,3.61290323 L40.7061551,3.61290323 C42.2309839,3.61290323 43.4671274,4.84548558 43.4671274,6.36663723 L43.4671274,6.36663723 Z"/>
                <polygon id="Fill-10" points="189.935 8.774 196.645 8.774 196.645 7.226 189.935 7.226"/>
                <path id="Fill-11"
                      d="M137.383366,21.2542814 L144.421622,21.2542814 L144.421622,19.0470997 L137.383366,19.0470997 L137.383366,21.2542814 Z M135.910175,13.8439401 L144.421622,13.8439401 L144.421622,15.5257402 L133.16129,15.5257402 L133.16129,24.7741935 L148.645161,24.7741935 L148.645161,10.3225806 L133.16129,10.3225806 L133.16129,11.1244027 C133.16129,12.6267336 134.391632,13.8439401 135.910175,13.8439401 L135.910175,13.8439401 Z"/>
                <path id="Fill-12"
                      d="M100.22294,21.2542814 L100.22294,13.8439401 L108.734798,13.8439401 C110.253137,13.8439401 111.483871,12.6267336 111.483871,11.1244027 L111.483871,10.3225806 L96,10.3225806 L96,24.7741935 L111.483871,24.7741935 L111.483871,23.9738188 C111.483871,22.4714879 110.253137,21.2542814 108.734798,21.2542814 L100.22294,21.2542814"/>
                <path id="Fill-13"
                      d="M116.054408,3.61290323 L114.580645,3.61290323 L114.580645,24.7741935 L118.803559,24.7741935 L118.803559,13.8260491 L125.84248,13.8260491 L125.84248,24.7741935 L130.064516,24.7741935 L130.064516,10.2989258 L118.803559,10.2989258 L118.803559,6.33689203 C118.803559,4.83210204 117.572644,3.61290323 116.054408,3.61290323"/>
                <path id="Fill-14"
                      d="M170.932817,21.1541899 L177.970409,21.1541899 L177.970409,13.8116982 L170.932817,13.8116982 L170.932817,21.1541899 Z M166.709677,24.6418734 L177.970409,24.6418734 L177.970409,27.9947534 L169.458302,27.9947534 C167.939903,27.9947534 166.709677,29.200815 166.709677,30.6893904 L166.709677,31.483871 L182.193548,31.483871 L182.193548,10.3225806 L166.709677,10.3225806 L166.709677,24.6418734 L166.709677,24.6418734 Z"/>
                <path id="Fill-15"
                      d="M185.290323,10.3225806 L185.290323,12.2797555 C185.290323,13.1944897 186.021729,13.9354839 186.921359,13.9354839 L199.143158,13.9354839 C200.04425,13.9354839 200.774194,13.1944897 200.774194,12.2797555 L200.774194,10.3225806 L185.290323,10.3225806"/>
                <path id="Fill-16"
                      d="M151.741935,24.7741935 L153.232235,24.7741935 C154.768413,24.7741935 156.014522,23.5569871 156.014522,22.0546562 L156.014522,13.8439401 L161.346745,13.8439401 C162.882923,13.8439401 164.129032,12.6267336 164.129032,11.1244027 L164.129032,10.3225806 L151.741935,10.3225806 L151.741935,24.7741935"/>
                <polygon id="Fill-17" points="185.29 19.097 200.774 19.097 200.774 15.484 185.29 15.484"/>
                <path id="Fill-18"
                      d="M185.290323,24.7741935 L200.774194,24.7741935 L200.774194,22.8176995 C200.774194,21.9025891 200.04425,21.1612903 199.143158,21.1612903 L186.921359,21.1612903 C186.021729,21.1612903 185.290323,21.9025891 185.290323,22.8176995 L185.290323,24.7741935"/>
            </g>
            <text id="TM" font-family="Montserrat-Medium, Montserrat" font-size="10" font-weight="400">
                <tspan x="203" y="10">TM</tspan>
            </text>
        </g>
    </g>
</svg>
